<svg width="1320" height="551" viewBox="0 0 1320 551" fill="none" xmlns="http://www.w3.org/2000/svg">
<path d="M1320 430.229C1320 430.229 1275.15 469.858 1192.53 505.097C1109.91 540.336 1086.31 598.377 1012.19 481.259C938.069 364.142 738.369 465.713 647.253 520.989C556.137 576.266 490.987 340.304 319.614 481.259C148.24 622.215 244.84 482.987 143.519 494.042C42.1982 505.097 0 375.432 0 407.217C0 439.001 0 58.7383 0 58.7383C0 58.7383 119.914 -26.9406 143.519 31.4455C167.124 89.8315 293.176 -1.37512 319.614 44.2282C346.052 89.8315 428.197 142.344 501.845 44.2282C575.494 -53.8879 595.322 68.0663 647.253 82.5764C699.185 97.0864 755.837 80.1581 810.129 31.4455C864.421 -17.2671 970.644 -3.10248 971.116 31.4455C971.588 65.9935 1092.45 50.4469 1142.49 17.2808C1192.53 -15.8852 1320 58.7383 1320 58.7383V430.229Z" fill="#FAF5EE"/>
</svg>
